<?xml version="1.0" encoding="utf-8"?>
<!-- Generator: Adobe Illustrator 24.0.2, SVG Export Plug-In . SVG Version: 6.00 Build 0)  -->
<svg version="1.1" id="Layer_1" xmlns="http://www.w3.org/2000/svg" xmlns:xlink="http://www.w3.org/1999/xlink" x="0px" y="0px"
	 viewBox="0 0 1920 1080" style="enable-background:new 0 0 1920 1080;" xml:space="preserve">
<style type="text/css">
	.st0{fill:#2DA54F;}
	.st1{fill:url(#SVGID_1_);}
	.st2{fill:#1B376F;}
	.st3{fill:url(#SVGID_2_);}
	.st4{fill:#FFFFFF;}
	.st5{fill:url(#SVGID_3_);}
	.st6{fill:#1A1718;}
	.st7{fill:#1A1818;}
</style>
<g>
	<g>
		<path class="st0" d="M438.65,637c-18.89-18.66-37.83-37.27-56.63-56.01c-1.82-1.81-2.58-1.8-4.37-0.05
			c-8.32,8.1-17.34,15.23-27.87,20.4c-10.31,5.06-21.12,8.35-32.3,10.84c-12.63,2.81-25.24,3.32-37.91,1.14
			c-15.38-2.64-29.38-8.68-41.9-18.05c-5.77-4.32-11.08-9.13-16.02-15.22c1.05-0.16,1.42-0.29,1.79-0.27
			c24.02,1.16,47.99,0.77,71.76-3.24c10.37-1.75,20.75-3.67,30.9-6.37c15.43-4.1,30.34-9.71,44.52-17.19
			c19.53-10.3,36.75-23.35,49.58-41.56c15.75-22.34,21.56-46.99,16.62-74.02c-0.1-0.56-4.02-16.74-7.35-23.67
			c-9.5-19.73-23.19-35.56-41.45-47.36c-22.06-14.26-46.69-21.3-72.63-23.29c-25.68-1.97-51.05,0.44-75.75,8.37
			c-15.39,4.94-29.81,11.79-43.27,20.72c-20.94,13.89-38.04,31.55-51.12,52.95c-5.03,8.23-8.94,17.15-13.35,25.76
			c-0.73,1.43-0.78,2.3,1.15,3.13c15.27,6.62,30.95,12.01,47.09,15.99c9.53,2.35,19.25,3.96,28.84,6.07
			c2.69,0.59,4.11-0.26,5.42-2.56c15.42-26.92,38.84-41.86,69.4-45.79c12.31-1.58,24.66-1.44,36.84,1.23
			c9.06,1.98,17.77,4.97,25.14,10.92c6.77,5.46,8.45,12.02,5.35,20.15c-2.69,7.06-8.08,11.59-14.3,15.32
			c-11.86,7.1-24.73,11.49-38.11,14.78c-16.04,3.94-32.32,5.64-48.74,6.07c-8.34,0.22-16.74-0.1-25.06-0.84
			c-11.77-1.05-23.56-2.29-35.21-4.23c-9.37-1.56-18.65-3.9-27.78-6.54c-10.65-3.08-21.21-6.56-31.59-10.45
			c-9.63-3.6-18.97-7.97-28.78-12.14C89.19,486.74,76.7,511.71,64,537.13c10.85,4.85,21.64,9.68,32.43,14.51
			c0.21-0.27,17.62,6.16,22.88,8.19c0.94,0.36,1.81,1.68,2.13,2.73c2.02,6.64,3.54,13.44,5.87,19.96c4,11.2,9.18,21.87,15.5,31.99
			c10.48,16.79,23.37,31.43,38.77,43.84c17.29,13.93,36.46,24.4,57.59,31.34c11.46,3.77,23.16,6.58,35.09,7.86
			c19.78,2.13,39.53,1.53,59.11-2.62c13.62-2.89,27-6.59,39.91-11.75c19.36-7.73,37.01-18.4,52.73-32.15
			c4.66-4.08,9.08-8.43,13.58-12.64C439.09,637.64,438.92,637.27,438.65,637z"/>
	</g>
	<linearGradient id="SVGID_1_" gradientUnits="userSpaceOnUse" x1="455.2018" y1="509.821" x2="1445.1714" y2="509.821">
		<stop  offset="3.011481e-04" style="stop-color:#1B376F"/>
		<stop  offset="0.9997" style="stop-color:#294A9D"/>
	</linearGradient>
	<path class="st1" d="M1445.17,396.28c0,7.2-1.69,17.65-5.06,31.37c-3.37,13.72-7.65,29.24-12.82,46.54
		c-5.17,17.32-11.25,35.64-18.21,54.97c-6.98,19.34-14.06,38.23-21.25,56.66c-7.2,18.44-14.28,35.64-21.25,51.6
		c-6.98,15.97-13.15,29.12-18.55,39.46c-6.3,4.95-15.51,8.99-27.66,12.14c-12.14,3.14-25.86,4.72-41.15,4.72
		c-17.54,0-32.71-2.26-45.53-6.75c-12.82-4.49-21.7-11.69-26.64-21.58c-4.05-7.64-8.89-18.32-14.5-32.04
		c-5.63-13.71-11.58-29-17.87-45.87c-6.3-16.86-12.82-34.96-19.56-54.3c-6.75-19.33-13.15-38.45-19.22-57.33
		c-6.07-18.89-11.58-37.1-16.53-54.64c-4.95-17.54-9-33.05-12.14-46.54c6.29-6.29,14.72-11.8,25.29-16.53
		c10.56-4.72,22.14-7.08,34.74-7.08c15.74,0,28.67,3.27,38.79,9.78c10.12,6.52,17.64,18.78,22.6,36.76l26.31,103.2
		c4.94,20.24,9.66,38.56,14.16,54.97c4.49,16.42,7.86,29.12,10.12,38.11h3.37c8.54-33.27,17.54-70.15,26.98-110.62
		s17.98-80.27,25.63-119.39c7.64-4.05,16.29-7.19,25.97-9.44c9.66-2.25,18.99-3.37,27.99-3.37c15.74,0,29,3.37,39.8,10.12
		C1439.78,367.95,1445.17,379.65,1445.17,396.28z M1092.45,637c0.27,0.27,0.44,0.65,0.95,1.41c-4.51,4.21-8.92,8.57-13.58,12.64
		c-15.72,13.74-33.37,24.41-52.73,32.15c-12.91,5.16-26.28,8.86-39.91,11.75c-19.59,4.15-39.33,4.75-59.11,2.62
		c-11.93-1.29-23.62-4.1-35.09-7.86c-21.13-6.94-40.3-17.41-57.59-31.34c-15.4-12.41-28.29-27.05-38.77-43.84
		c-6.32-10.12-11.5-20.79-15.5-31.99c-2.33-6.52-3.85-13.33-5.87-19.96c-0.32-1.05-1.19-2.37-2.13-2.73
		c-5.26-2.03-22.67-8.46-22.88-8.19c-10.79-4.83-21.58-9.66-32.43-14.51c0.26-0.52,0.52-1.04,0.78-1.56
		c-8.16,7.52-16.98,13.91-26.52,19.12c14.65,19.95,29.09,38.67,43.34,56.16c14.24,17.5,25.43,33.38,33.58,47.62
		c-4.07,14.25-11.5,25.13-22.28,32.66c-10.79,7.53-22.89,11.29-36.32,11.29c-8.96,0-16.69-1.02-23.2-3.05
		c-6.51-2.03-12.21-4.88-17.09-8.55c-4.88-3.66-9.37-8.14-13.43-13.43c-4.07-5.28-7.94-10.99-11.6-17.09l-51.28-82.41h-32.36V695.1
		c-4.48,1.22-11.5,2.44-21.06,3.66c-9.57,1.22-19.03,1.83-28.39,1.83c-9.37,0-17.61-0.72-24.72-2.14
		c-7.13-1.42-13.03-3.97-17.7-7.63c-4.68-3.66-8.24-8.75-10.68-15.26c-2.44-6.51-3.66-15.05-3.66-25.64V362.39
		c0-8.55,2.34-15.16,7.02-19.84c4.67-4.67,11.08-8.44,19.23-11.29c13.83-4.88,29.91-8.44,48.23-10.68
		c18.31-2.23,37.85-3.36,58.61-3.36c56.16,0,98.49,11.81,126.98,35.41c28.48,23.61,42.73,55.55,42.73,95.84
		c0,4.91-0.25,9.67-0.75,14.31c9.12,3.92,17.9,7.96,26.91,11.33c10.38,3.88,20.94,7.36,31.59,10.45c9.13,2.64,18.41,4.99,27.78,6.54
		c11.65,1.93,23.43,3.18,35.21,4.23c8.32,0.74,16.72,1.06,25.06,0.84c16.42-0.43,32.71-2.12,48.74-6.07
		c13.38-3.29,26.25-7.68,38.11-14.78c6.22-3.73,11.61-8.25,14.3-15.32c3.1-8.13,1.42-14.69-5.35-20.15
		c-7.37-5.94-16.08-8.93-25.14-10.92c-12.18-2.67-24.53-2.81-36.84-1.23c-30.56,3.93-53.98,18.87-69.4,45.8
		c-1.32,2.3-2.73,3.15-5.42,2.56c-9.59-2.11-19.31-3.72-28.84-6.07c-16.14-3.98-31.83-9.37-47.09-15.99
		c-1.92-0.83-1.88-1.7-1.15-3.13c4.41-8.61,8.32-17.53,13.35-25.76c13.08-21.39,30.18-39.06,51.12-52.95
		c13.46-8.93,27.88-15.78,43.27-20.72c24.7-7.93,50.07-10.34,75.75-8.37c25.93,1.99,50.56,9.03,72.63,23.29
		c18.26,11.8,31.96,27.63,41.45,47.36c3.34,6.93,7.25,23.11,7.35,23.67c4.94,27.02-0.87,51.68-16.62,74.02
		c-12.84,18.21-30.05,31.26-49.58,41.56c-14.18,7.47-29.09,13.09-44.52,17.19c-10.15,2.7-20.54,4.61-30.9,6.37
		c-23.77,4.02-47.74,4.4-71.76,3.24c-0.37-0.02-0.74,0.11-1.79,0.27c4.94,6.1,10.25,10.9,16.02,15.22
		c12.52,9.38,26.52,15.41,41.9,18.05c12.67,2.18,25.28,1.67,37.91-1.14c11.19-2.49,21.99-5.78,32.3-10.84
		c10.53-5.17,19.56-12.3,27.87-20.4c1.8-1.75,2.55-1.77,4.37,0.05C1054.63,599.73,1073.56,618.34,1092.45,637z M649.94,449.69
		c0-15.46-4.99-27.17-14.96-35.1c-9.98-7.94-25.75-11.9-47.31-11.9c-6.1,0-10.99,0.21-14.65,0.61c-3.66,0.41-7.74,1.02-12.21,1.83
		v91.57h39.07c15.46,0,27.67-3.97,36.63-11.9C645.46,476.86,649.94,465.16,649.94,449.69z"/>
	<g>
		
			<ellipse transform="matrix(0.8905 -0.4551 0.4551 0.8905 23.6528 742.1896)" class="st0" cx="1553.42" cy="321.97" rx="59.39" ry="37.12"/>
		<g>
			<path class="st0" d="M1445.74,314.32c0,0,13.25-35.98,42.92-68.8s55.54-51.76,82.05-63.75c26.51-11.99,48.6-18.3,65.64-21.46
				c17.04-3.16,17.04-3.16,17.04-3.16L1856,396.37c0,0-63.75-6.94-83.95-5.68c-20.2,1.26-50.49,5.68-87.1,16.41
				c-36.61,10.73-68.17,24.62-97.2,42.92c-29.03,18.3-43.55,28.4-65.64,49.23s-24.62,24.62-34.71,35.98
				c-10.1,11.36-10.1,11.36-10.1,11.36s16.41-42.29,30.3-65.01c13.89-22.72,24.62-37.87,50.49-61.86
				c25.88-23.98,54.91-42.29,87.1-56.17c32.19-13.89,42.29-15.15,66.27-20.2s23.98-5.05,23.98-5.05s-53.65-70.69-77.63-107.3
				c-23.98-36.61-23.98-36.61-23.98-36.61s-20.2,3.16-43.55,11.99c-23.35,8.84-46.71,18.94-70.69,36.61
				c-23.98,17.67-28.4,20.83-44.18,38.5C1459.62,299.17,1445.74,314.32,1445.74,314.32z"/>
			<path class="st0" d="M1741.13,406.47c0,0-20.2,3.16-36.61,6.94c-16.41,3.79-16.41,3.79-16.41,3.79l11.99,18.94
				c0,0-46.71,7.57-82.68,24.62c-35.98,17.04-63.75,34.08-95.31,65.64c-31.56,31.56-42.29,42.29-56.81,68.8
				c-14.52,26.51-20.2,42.92-21.46,46.08c-1.26,3.16-1.26,3.16-1.26,3.16s32.82-42.29,60.59-64.38
				c27.77-22.09,61.22-43.55,93.41-56.81c32.19-13.25,58.07-21.46,98.46-27.14c40.4-5.68,49.23-8.21,82.05-5.05
				c32.82,3.16,36.61,3.79,36.61,3.79L1741.13,406.47z"/>
			<path class="st0" d="M1690,514.4c0,0-13.89-1.26-34.08,4.42s-20.2,5.68-20.2,5.68l16.41,18.94c0,0-51.13,8.21-77,18.94
				c-25.88,10.73-59.96,32.19-86.47,54.91c-26.51,22.72-40.4,39.76-58.07,68.17c-17.67,28.4-18.3,29.67-25.88,48.6
				s-7.57,18.94-7.57,18.94s33.45-40.4,65.01-65.64c31.56-25.25,56.17-44.18,100.99-60.59c44.81-16.41,63.75-24.62,111.09-27.77
				c47.34-3.16,65.64-3.16,77.63-1.89c11.99,1.26,11.99,1.26,11.99,1.26L1690,514.4z"/>
		</g>
	</g>
	<g>
		<path class="st2" d="M496.55,889.24c-2.62,0-5.41-0.07-8.36-0.22c-2.96-0.15-5.96-0.39-9.02-0.73c-3.05-0.34-5.94-0.68-8.65-1.02
			c-2.72-0.34-5.14-0.75-7.27-1.24v-14.11c2.71,0.2,5.89,0.39,9.53,0.58c3.64,0.2,7.44,0.34,11.42,0.44
			c3.98,0.1,7.81,0.15,11.49,0.15c3.88,0,7.32-0.36,10.33-1.09c3-0.73,5.33-2.01,6.98-3.85c1.65-1.84,2.47-4.46,2.47-7.86v-5.09
			c0-3.78-1.07-6.69-3.2-8.73c-2.13-2.04-5.29-3.05-9.45-3.05h-10.04c-9.8,0-17.33-2.13-22.62-6.4c-5.29-4.27-7.93-11.59-7.93-21.96
			v-5.53c0-10.37,2.88-17.87,8.65-22.47c5.77-4.61,14.04-6.91,24.8-6.91c3.68,0,7.49,0.17,11.42,0.51
			c3.93,0.34,7.68,0.75,11.27,1.24c3.59,0.49,6.64,1.02,9.16,1.6v14.11c-4.27-0.29-9.14-0.58-14.62-0.87
			c-5.48-0.29-10.55-0.44-15.2-0.44c-3.69,0-6.93,0.39-9.75,1.16c-2.81,0.78-4.95,2.16-6.4,4.15c-1.45,1.99-2.18,4.92-2.18,8.8v3.49
			c0,4.56,1.24,7.76,3.71,9.6c2.47,1.84,6.04,2.76,10.69,2.76h11.2c6.3,0,11.49,1.16,15.56,3.49c4.07,2.33,7.1,5.5,9.09,9.53
			c1.99,4.03,2.98,8.61,2.98,13.75v6.84c0,7.95-1.55,14.06-4.65,18.33c-3.1,4.27-7.37,7.18-12.8,8.73
			C509.73,888.46,503.53,889.24,496.55,889.24z"/>
		<path class="st2" d="M565.2,889.24c-5.82,0-10.57-1.74-14.25-5.24c-3.69-3.49-5.53-8.29-5.53-14.4v-6.55
			c0-6.01,2.06-10.91,6.18-14.69c4.12-3.78,10.45-5.67,18.98-5.67h22.25v-6.84c0-2.71-0.49-4.99-1.45-6.84
			c-0.97-1.84-2.72-3.22-5.24-4.15c-2.52-0.92-6.35-1.38-11.49-1.38h-23.56v-10.47c3.59-0.97,7.8-1.82,12.65-2.55
			c4.85-0.73,10.62-1.09,17.31-1.09c6.4-0.1,11.83,0.65,16.29,2.25c4.46,1.6,7.83,4.24,10.11,7.93c2.28,3.69,3.42,8.73,3.42,15.13
			v53.67h-14.11l-3.05-8.44c-0.68,0.58-1.89,1.36-3.64,2.33c-1.75,0.97-3.93,2.01-6.54,3.13c-2.62,1.12-5.5,2.04-8.65,2.76
			C571.72,888.88,568.49,889.24,565.2,889.24z M573.93,876.59c1.26,0,2.69-0.17,4.29-0.51c1.6-0.34,3.22-0.73,4.87-1.16
			c1.65-0.44,3.17-0.87,4.58-1.31c1.4-0.44,2.57-0.85,3.49-1.24c0.92-0.39,1.48-0.63,1.67-0.73v-20.36l-16.87,0.87
			c-4.46,0.39-7.69,1.55-9.67,3.49c-1.99,1.94-2.98,4.51-2.98,7.71v3.2c0,2.42,0.51,4.39,1.53,5.89c1.02,1.5,2.33,2.55,3.93,3.13
			C570.36,876.15,572.08,876.49,573.93,876.59z"/>
		<path class="st2" d="M633.85,888.37v-63.42H622.5v-11.64l11.35-2.91v-6.55c0-6.2,0.8-11.32,2.4-15.34
			c1.6-4.02,4.22-7.03,7.86-9.02c3.64-1.99,8.46-2.98,14.47-2.98c3.39,0,6.4,0.22,9.02,0.65c2.62,0.44,4.85,0.85,6.69,1.24v12.8
			h-12.36c-2.62,0-4.65,0.44-6.11,1.31c-1.45,0.87-2.47,2.16-3.05,3.85c-0.58,1.7-0.87,3.9-0.87,6.62v7.42h21.38v14.54h-21.38v63.42
			H633.85z"/>
		<path class="st2" d="M716.46,889.1c-8.44,0-15.15-1.16-20.14-3.49c-5-2.33-8.61-6.37-10.84-12.14
			c-2.23-5.77-3.34-13.79-3.34-24.07c0-10.47,1.07-18.59,3.2-24.36c2.13-5.77,5.67-9.82,10.62-12.14
			c4.95-2.33,11.64-3.49,20.07-3.49c7.47,0,13.45,0.75,17.96,2.25c4.51,1.51,7.8,4.17,9.89,8c2.08,3.83,3.13,9.24,3.13,16.22
			c0,4.95-0.97,8.9-2.91,11.85c-1.94,2.96-4.73,5.07-8.36,6.33c-3.64,1.26-7.93,1.89-12.87,1.89h-22.84
			c0.19,4.85,0.85,8.7,1.96,11.56c1.11,2.86,3.15,4.92,6.11,6.18c2.96,1.26,7.29,1.89,13.02,1.89h23.56v10.62
			c-3.98,0.78-8.17,1.45-12.58,2.04C727.69,888.81,722.47,889.1,716.46,889.1z M699.88,845.03h21.24c3.39,0,5.89-0.65,7.49-1.96
			c1.6-1.31,2.4-3.71,2.4-7.2c0-3.39-0.49-6.06-1.46-8c-0.97-1.94-2.57-3.32-4.8-4.14c-2.23-0.82-5.14-1.24-8.73-1.24
			c-4.07,0-7.27,0.63-9.6,1.89c-2.33,1.26-4,3.52-5.02,6.76C700.39,834.39,699.88,839.01,699.88,845.03z"/>
		<path class="st2" d="M764.9,888.51c-1.84,0-2.76-0.87-2.76-2.62v-13.82c0-1.84,0.92-2.76,2.76-2.76h10.33
			c1.84,0,2.76,0.92,2.76,2.76v13.82c0,0.97-0.27,1.65-0.8,2.04c-0.53,0.39-1.19,0.58-1.96,0.58H764.9z"/>
		<path class="st2" d="M865.98,889.24c-2.62,0-5.41-0.07-8.36-0.22c-2.96-0.15-5.96-0.39-9.02-0.73c-3.05-0.34-5.94-0.68-8.65-1.02
			c-2.72-0.34-5.14-0.75-7.27-1.24v-14.11c2.71,0.2,5.89,0.39,9.53,0.58c3.64,0.2,7.44,0.34,11.42,0.44
			c3.98,0.1,7.81,0.15,11.49,0.15c3.88,0,7.32-0.36,10.33-1.09c3-0.73,5.33-2.01,6.98-3.85c1.65-1.84,2.47-4.46,2.47-7.86v-5.09
			c0-3.78-1.07-6.69-3.2-8.73c-2.13-2.04-5.29-3.05-9.45-3.05H862.2c-9.8,0-17.33-2.13-22.62-6.4c-5.29-4.27-7.93-11.59-7.93-21.96
			v-5.53c0-10.37,2.88-17.87,8.65-22.47c5.77-4.61,14.04-6.91,24.8-6.91c3.68,0,7.49,0.17,11.42,0.51
			c3.93,0.34,7.68,0.75,11.27,1.24c3.59,0.49,6.64,1.02,9.16,1.6v14.11c-4.27-0.29-9.14-0.58-14.62-0.87
			c-5.48-0.29-10.55-0.44-15.2-0.44c-3.69,0-6.93,0.39-9.75,1.16c-2.81,0.78-4.95,2.16-6.4,4.15c-1.45,1.99-2.18,4.92-2.18,8.8v3.49
			c0,4.56,1.24,7.76,3.71,9.6c2.47,1.84,6.04,2.76,10.69,2.76h11.2c6.3,0,11.49,1.16,15.56,3.49c4.07,2.33,7.1,5.5,9.09,9.53
			c1.99,4.03,2.98,8.61,2.98,13.75v6.84c0,7.95-1.55,14.06-4.65,18.33c-3.1,4.27-7.37,7.18-12.8,8.73
			C879.17,888.46,872.96,889.24,865.98,889.24z"/>
		<path class="st2" d="M920.82,798.04c-1.84,0-2.76-0.87-2.76-2.62v-13.24c0-1.94,0.92-2.91,2.76-2.91h13.67
			c0.87,0,1.53,0.29,1.96,0.87c0.44,0.58,0.65,1.26,0.65,2.04v13.24c0,1.75-0.87,2.62-2.62,2.62H920.82z M918.49,888.37v-77.96
			h18.04v77.96H918.49z"/>
		<path class="st2" d="M955,888.37v-77.96h14.69l3.34,8.15c3.59-2.52,7.54-4.73,11.85-6.62c4.31-1.89,9.43-2.84,15.34-2.84
			c4.85,0,8.95,1.04,12.29,3.13c3.35,2.09,5.84,4.78,7.49,8.07c2.23-1.75,4.92-3.47,8.07-5.16c3.15-1.7,6.52-3.13,10.11-4.29
			c3.59-1.16,7.13-1.75,10.62-1.75c6.01,0,10.84,1.19,14.47,3.56c3.64,2.38,6.23,5.67,7.78,9.89c1.55,4.22,2.33,9.09,2.33,14.62
			v51.2h-18.04v-49.74c0-2.81-0.53-5.19-1.6-7.13c-1.07-1.94-2.55-3.44-4.44-4.51c-1.89-1.07-4.2-1.6-6.91-1.6
			c-3.49,0-7.01,0.68-10.55,2.04c-3.54,1.36-6.76,3.01-9.67,4.95c0.39,0.97,0.65,2.04,0.8,3.2c0.15,1.16,0.22,2.33,0.22,3.49v49.31
			h-18.04v-49.74c0-2.81-0.53-5.19-1.6-7.13c-1.07-1.94-2.55-3.44-4.44-4.51c-1.89-1.07-4.2-1.6-6.91-1.6
			c-2.52,0-4.87,0.24-7.05,0.73c-2.18,0.49-4.24,1.21-6.18,2.18c-1.94,0.97-3.93,2.13-5.96,3.49v56.58H955z"/>
		<path class="st2" d="M1091.28,922.84V810.41h14.98l3.05,7.71c1.84-1.45,3.98-2.86,6.4-4.22c2.42-1.36,5.04-2.45,7.86-3.27
			c2.81-0.82,5.72-1.24,8.73-1.24c4.95,0,9.19,0.97,12.73,2.91c3.54,1.94,6.42,4.68,8.65,8.22c2.23,3.54,3.85,7.76,4.87,12.65
			c1.02,4.9,1.53,10.31,1.53,16.22c0,8.53-0.9,15.78-2.69,21.75c-1.8,5.96-4.71,10.5-8.73,13.6c-4.03,3.1-9.48,4.65-16.36,4.65
			c-3.88,0-7.83-0.53-11.85-1.6c-4.03-1.07-7.73-2.47-11.13-4.22v39.27H1091.28z M1126.63,874.55c2.81,0,5.38-0.75,7.71-2.26
			c2.33-1.5,4.19-4.05,5.6-7.64c1.4-3.59,2.11-8.68,2.11-15.27c0-6.3-0.68-11.35-2.04-15.13c-1.36-3.78-3.18-6.45-5.45-8
			c-2.28-1.55-4.87-2.33-7.78-2.33c-3.59,0-6.84,0.56-9.75,1.67c-2.91,1.12-5.48,2.25-7.71,3.42v40.73
			c2.52,1.45,5.28,2.62,8.29,3.49C1120.61,874.12,1123.62,874.55,1126.63,874.55z"/>
		<path class="st2" d="M1199.21,888.66c-5.14,0-9.43-0.87-12.87-2.62c-3.44-1.75-6.01-4.46-7.71-8.15
			c-1.7-3.68-2.55-8.58-2.55-14.69v-85.82h18.04v83.34c0,3.49,0.36,6.21,1.09,8.15c0.73,1.94,1.77,3.32,3.13,4.14
			c1.36,0.83,3,1.38,4.95,1.67l6.55,0.87v13.09H1199.21z"/>
		<path class="st2" d="M1252.44,889.1c-8.44,0-15.15-1.16-20.14-3.49c-5-2.33-8.61-6.37-10.84-12.14
			c-2.23-5.77-3.34-13.79-3.34-24.07c0-10.47,1.07-18.59,3.2-24.36c2.13-5.77,5.67-9.82,10.62-12.14
			c4.95-2.33,11.64-3.49,20.07-3.49c7.47,0,13.45,0.75,17.96,2.25c4.51,1.51,7.8,4.17,9.89,8c2.08,3.83,3.13,9.24,3.13,16.22
			c0,4.95-0.97,8.9-2.91,11.85c-1.94,2.96-4.73,5.07-8.36,6.33c-3.64,1.26-7.93,1.89-12.87,1.89h-22.84
			c0.19,4.85,0.85,8.7,1.96,11.56c1.11,2.86,3.15,4.92,6.11,6.18c2.96,1.26,7.29,1.89,13.02,1.89h23.56v10.62
			c-3.98,0.78-8.17,1.45-12.58,2.04C1263.66,888.81,1258.45,889.1,1252.44,889.1z M1235.86,845.03h21.24c3.39,0,5.89-0.65,7.49-1.96
			c1.6-1.31,2.4-3.71,2.4-7.2c0-3.39-0.49-6.06-1.46-8c-0.97-1.94-2.57-3.32-4.8-4.14c-2.23-0.82-5.14-1.24-8.73-1.24
			c-4.07,0-7.27,0.63-9.6,1.89c-2.33,1.26-4,3.52-5.02,6.76C1236.37,834.39,1235.86,839.01,1235.86,845.03z"/>
		<path class="st2" d="M1300.87,888.51c-1.84,0-2.76-0.87-2.76-2.62v-13.82c0-1.84,0.92-2.76,2.76-2.76h10.33
			c1.84,0,2.76,0.92,2.76,2.76v13.82c0,0.97-0.27,1.65-0.8,2.04c-0.53,0.39-1.19,0.58-1.96,0.58H1300.87z"/>
	</g>
</g>
</svg>
