<svg width="135" height="115" viewBox="0 0 135 115" fill="none" xmlns="http://www.w3.org/2000/svg">
<g clip-path="url(#clip0_6_790)">
<path d="M100.63 1.18152H14.3705C7.08638 1.18152 1.18146 7.08644 1.18146 14.3705V100.63C1.18146 107.914 7.08638 113.819 14.3705 113.819H100.63C107.914 113.819 113.819 107.914 113.819 100.63V14.3705C113.819 7.08644 107.914 1.18152 100.63 1.18152Z" fill="#FCF4DF" fill-opacity="0.36"/>
<path d="M113.819 44.9199V15.6484C113.819 7.66752 107.345 1.18152 99.3516 1.18152H15.6484C7.66746 1.18152 1.18146 7.66752 1.18146 15.6484V99.3517C1.18146 107.345 7.66746 113.819 15.6484 113.819H99.3516C103.39 113.819 107.043 112.167 109.659 109.503" stroke="#0202A5" stroke-width="1.96" stroke-miterlimit="10"/>
<path d="M1.18146 21.3387H113.819" stroke="#0202A5" stroke-width="2" stroke-miterlimit="10"/>
<path d="M18.7467 17.2037C21.4566 17.2037 23.6534 15.0069 23.6534 12.297C23.6534 9.58706 21.4566 7.39026 18.7467 7.39026C16.0368 7.39026 13.84 9.58706 13.84 12.297C13.84 15.0069 16.0368 17.2037 18.7467 17.2037Z" fill="white" stroke="#0202A5" stroke-width="2" stroke-miterlimit="10"/>
<path d="M39.4224 12.297H57.506" stroke="#0202A5" stroke-width="3" stroke-linecap="round" stroke-linejoin="round"/>
<path d="M71.1893 12.297H100.907" stroke="#0202A5" stroke-width="3" stroke-linecap="round" stroke-linejoin="round"/>
<path d="M66.8372 34.4193H93.1911" stroke="#2D60EF" stroke-width="2" stroke-miterlimit="10" stroke-linecap="round"/>
<path d="M65.1614 43.9193H94.8669" stroke="#2D60EF" stroke-width="2" stroke-miterlimit="10" stroke-linecap="round"/>
<path d="M66.8372 53.8049H93.1911" stroke="#2D60EF" stroke-width="2" stroke-miterlimit="10" stroke-linecap="round"/>
<path d="M19.1928 76.6627H45.5467" stroke="#2D60EF" stroke-width="2" stroke-miterlimit="10" stroke-linecap="round"/>
<path d="M17.517 86.1747H47.2224" stroke="#2D60EF" stroke-width="2" stroke-miterlimit="10" stroke-linecap="round"/>
<path d="M19.1928 96.0483H45.5467" stroke="#2D60EF" stroke-width="2" stroke-miterlimit="10" stroke-linecap="round"/>
<path d="M44.1241 45.3297C44.1241 47.97 42.9788 50.3449 41.1463 51.9966L42.4001 56.6863L33.5512 54.3234H26.4865C21.5436 54.3234 17.5049 50.2847 17.5049 45.3418V40.1578C17.5049 35.215 21.5436 31.1763 26.4865 31.1763H35.1305C40.0613 31.1763 44.112 35.215 44.112 40.1578V45.3418L44.1241 45.3297Z" fill="#0202A5" stroke="#0202A5" stroke-linecap="round" stroke-linejoin="round"/>
<path d="M30.8266 36.8063V43.9192" stroke="white" stroke-width="2" stroke-linecap="round" stroke-linejoin="round"/>
<path d="M30.8266 49.5493C31.4458 49.5493 31.9478 49.0473 31.9478 48.4281C31.9478 47.8089 31.4458 47.3069 30.8266 47.3069C30.2074 47.3069 29.7054 47.8089 29.7054 48.4281C29.7054 49.0473 30.2074 49.5493 30.8266 49.5493Z" fill="white" stroke="white" stroke-linecap="round" stroke-linejoin="round"/>
<path d="M85.3067 95.9881L57.506 96.0483L71.3461 71.9489L85.3067 95.9881Z" fill="#0202A5" stroke="#0202A5" stroke-width="2" stroke-linecap="round" stroke-linejoin="round"/>
<path d="M71.3823 79.7971V86.91" stroke="white" stroke-width="2" stroke-linecap="round" stroke-linejoin="round"/>
<path d="M71.3822 92.5401C72.0014 92.5401 72.5034 92.0381 72.5034 91.4189C72.5034 90.7997 72.0014 90.2977 71.3822 90.2977C70.763 90.2977 70.261 90.7997 70.261 91.4189C70.261 92.0381 70.763 92.5401 71.3822 92.5401Z" fill="white" stroke="white" stroke-linecap="round" stroke-linejoin="round"/>
<path d="M110.467 56.0353C110.166 53.383 112.01 51.3456 113.674 51.2853C115.41 51.213 117.52 53.2745 117.218 56.0955" fill="#0202A5"/>
<path d="M110.467 56.0353C110.166 53.383 112.01 51.3456 113.674 51.2853C115.41 51.213 117.52 53.2745 117.218 56.0955" stroke="#0202A5" stroke-linecap="round" stroke-linejoin="round"/>
<path d="M109.72 92.5642C109.298 95.771 111.6 98.2786 113.722 98.3389C115.904 98.3992 118.424 95.8795 118.014 92.5642" fill="#0202A5"/>
<path d="M109.72 92.5642C109.298 95.771 111.6 98.2786 113.722 98.3389C115.904 98.3992 118.424 95.8795 118.014 92.5642" stroke="#0202A5" stroke-linecap="round" stroke-linejoin="round"/>
<path d="M97.929 87.2717L98.3148 69.0555C99.448 61.4965 105.898 55.8303 113.433 55.6856C120.751 55.5409 127.285 60.6526 128.936 67.8861V86.3073C129.551 86.6207 130.889 87.4043 131.902 89.0078C132.83 90.4665 133.023 91.877 133.06 92.5642H94.5654C94.5654 92.0217 94.6619 90.6474 95.6022 89.273C96.41 88.0915 97.4347 87.5128 97.929 87.2717Z" fill="#0202A5" stroke="#0202A5" stroke-width="2" stroke-linecap="round" stroke-linejoin="round"/>
<path d="M97.929 87.2717H109.659" stroke="white" stroke-width="2" stroke-linecap="round" stroke-linejoin="round"/>
<path d="M113.819 88.0674C114.258 88.0674 114.614 87.7112 114.614 87.2718C114.614 86.8323 114.258 86.4761 113.819 86.4761C113.379 86.4761 113.023 86.8323 113.023 87.2718C113.023 87.7112 113.379 88.0674 113.819 88.0674Z" fill="#0202A5" stroke="white" stroke-linecap="round" stroke-linejoin="round"/>
</g>
<defs>
<clipPath id="clip0_6_790">
<rect width="134.277" height="115" fill="white"/>
</clipPath>
</defs>
</svg>
