<svg width="132" height="115" viewBox="0 0 132 115" fill="none" xmlns="http://www.w3.org/2000/svg">
<path d="M100.63 1.16943H14.3705C7.08638 1.16943 1.18146 7.07436 1.18146 14.3584V100.617C1.18146 107.902 7.08638 113.807 14.3705 113.807H100.63C107.914 113.807 113.819 107.902 113.819 100.617V14.3584C113.819 7.07436 107.914 1.16943 100.63 1.16943Z" fill="#FCF4DF" fill-opacity="0.36"/>
<path d="M113.819 44.9199V15.6484C113.819 7.66752 107.345 1.18152 99.3516 1.18152H15.6484C7.66746 1.18152 1.18146 7.66752 1.18146 15.6484V99.3517C1.18146 107.345 7.66746 113.819 15.6484 113.819H99.3516C103.39 113.819 107.043 112.167 109.659 109.503H109.671" stroke="#0202A5" stroke-width="1.96" stroke-miterlimit="10"/>
<path d="M1.18146 21.3387H113.819" stroke="#0202A5" stroke-width="2" stroke-miterlimit="10"/>
<path d="M18.7467 17.2037C21.4566 17.2037 23.6534 15.0069 23.6534 12.297C23.6534 9.58706 21.4566 7.39026 18.7467 7.39026C16.0368 7.39026 13.84 9.58706 13.84 12.297C13.84 15.0069 16.0368 17.2037 18.7467 17.2037Z" fill="white" stroke="#0202A5" stroke-width="2" stroke-miterlimit="10"/>
<path d="M39.4224 12.297H57.506" stroke="#0202A5" stroke-width="3" stroke-miterlimit="10" stroke-linecap="round"/>
<path d="M71.1893 12.297H100.907" stroke="#0202A5" stroke-width="3" stroke-miterlimit="10" stroke-linecap="round"/>
<path d="M39.4224 60.4718C46.2004 60.4718 51.6951 54.9771 51.6951 48.199C51.6951 41.421 46.2004 35.9263 39.4224 35.9263C32.6443 35.9263 27.1496 41.421 27.1496 48.199C27.1496 54.9771 32.6443 60.4718 39.4224 60.4718Z" fill="#0202A5" stroke="#0202A5" stroke-width="2" stroke-miterlimit="10"/>
<path d="M61.5809 95.735C61.8702 94.2762 62.027 92.7572 62.027 91.2141C62.027 78.7363 51.9001 68.6095 39.4224 68.6095C26.9447 68.6095 16.8178 78.7363 16.8178 91.2141C16.8178 92.7572 16.9745 94.2762 17.2639 95.735" fill="#0202A5"/>
<path d="M61.5809 95.735C61.8702 94.2762 62.027 92.7572 62.027 91.2141C62.027 78.7363 51.9001 68.6095 39.4224 68.6095C26.9447 68.6095 16.8178 78.7363 16.8178 91.2141C16.8178 92.7572 16.9745 94.2762 17.2639 95.735" stroke="#0202A5" stroke-width="2" stroke-linecap="round" stroke-linejoin="round"/>
<path d="M61.5809 95.7349H17.2639" stroke="#0202A5" stroke-width="2" stroke-linecap="round" stroke-linejoin="round"/>
<path d="M19.1446 38.241V30.6217H27.1496" stroke="#2D60EF" stroke-linecap="round" stroke-linejoin="round"/>
<path d="M59.7002 38.241V30.6217H51.6951" stroke="#2D60EF" stroke-linecap="round" stroke-linejoin="round"/>
<path d="M19.1446 57.494V65.1133H27.1496" stroke="#2D60EF" stroke-linecap="round" stroke-linejoin="round"/>
<path d="M59.7002 57.494V65.1133H51.6951" stroke="#2D60EF" stroke-linecap="round" stroke-linejoin="round"/>
<g opacity="0.5">
<path d="M14.9371 47.8615H16.1427" stroke="#2D60EF" stroke-linecap="square" stroke-linejoin="round" stroke-dasharray="1.5 1.5"/>
<path d="M18.4453 47.8615H58.579" stroke="#2D60EF" stroke-linecap="square" stroke-linejoin="round" stroke-dasharray="1.5 1.5"/>
<path d="M59.7243 47.8615H60.9299" stroke="#2D60EF" stroke-linecap="square" stroke-linejoin="round" stroke-dasharray="1.5 1.5"/>
<path d="M14.9974 48.8862C15.5633 48.8862 16.0221 48.4274 16.0221 47.8614C16.0221 47.2955 15.5633 46.8367 14.9974 46.8367C14.4314 46.8367 13.9727 47.2955 13.9727 47.8614C13.9727 48.4274 14.4314 48.8862 14.9974 48.8862Z" fill="#2D60EF"/>
<path d="M14.9974 49.0188C15.6363 49.0188 16.1547 48.5004 16.1547 47.8615C16.1547 47.2225 15.6363 46.7041 14.9974 46.7041C14.3584 46.7041 13.84 47.2225 13.84 47.8615C13.84 48.5004 14.3584 49.0188 14.9974 49.0188C15.6363 49.0188 14.3584 49.0188 14.9974 49.0188ZM14.9974 46.9814C15.4796 46.9814 15.8775 47.3792 15.8775 47.8615C15.8775 48.3437 15.4796 48.7415 14.9974 48.7415C14.5152 48.7415 14.1173 48.3437 14.1173 47.8615C14.1173 47.3792 14.5152 46.9814 14.9974 46.9814C15.4796 46.9814 14.5152 46.9814 14.9974 46.9814Z" fill="#2D60EF"/>
<path d="M60.8696 48.8862C61.4355 48.8862 61.8943 48.4274 61.8943 47.8614C61.8943 47.2955 61.4355 46.8367 60.8696 46.8367C60.3036 46.8367 59.8448 47.2955 59.8448 47.8614C59.8448 48.4274 60.3036 48.8862 60.8696 48.8862Z" fill="#2D60EF"/>
<path d="M60.8696 49.0188C60.2306 49.0188 59.7122 48.5004 59.7122 47.8615C59.7122 47.2225 60.2306 46.7041 60.8696 46.7041C61.5085 46.7041 62.0269 47.2225 62.0269 47.8615C62.0269 48.5004 61.5085 49.0188 60.8696 49.0188C61.5085 49.0188 60.2306 49.0188 60.8696 49.0188ZM60.8696 46.9814C60.3873 46.9814 59.9895 47.3792 59.9895 47.8615C59.9895 48.3437 60.3873 48.7415 60.8696 48.7415C61.3518 48.7415 61.7496 48.3437 61.7496 47.8615C61.7496 47.3792 61.3518 46.9814 60.8696 46.9814C61.3518 46.9814 60.3873 46.9814 60.8696 46.9814Z" fill="#2D60EF"/>
</g>
<path d="M108.852 95.9399C120.623 95.9399 130.166 86.397 130.166 74.6253C130.166 62.8535 120.623 53.3107 108.852 53.3107C97.0798 53.3107 87.5369 62.8535 87.5369 74.6253C87.5369 86.397 97.0798 95.9399 108.852 95.9399Z" fill="#0202A5"/>
<path d="M93.5889 72.8531C97.4227 76.6145 101.256 80.3879 105.09 84.1493C111.431 77.808 117.785 71.4546 124.126 65.1133" stroke="white" stroke-width="2" stroke-linecap="round" stroke-linejoin="round"/>
</svg>
