<svg width="133" height="115" viewBox="0 0 133 115" fill="none" xmlns="http://www.w3.org/2000/svg">
<path d="M100.654 0.0603027H14.3946C7.11049 0.0603027 1.20557 5.96523 1.20557 13.2493V99.5084C1.20557 106.792 7.11049 112.697 14.3946 112.697H100.654C107.938 112.697 113.843 106.792 113.843 99.5084V13.2493C113.843 5.96523 107.938 0.0603027 100.654 0.0603027Z" fill="#FCF4DF" fill-opacity="0.36"/>
<path d="M113.843 44.9199V15.6484C113.843 7.66752 107.369 1.18152 99.3757 1.18152H15.6725C7.69157 1.18152 1.20557 7.66752 1.20557 15.6484V99.3517C1.20557 107.345 7.69157 113.819 15.6725 113.819H99.3757C103.414 113.819 107.067 112.167 109.683 109.503H109.695" stroke="#0202A5" stroke-width="1.96" stroke-miterlimit="10" stroke-linecap="round"/>
<path d="M1.20557 21.3387H113.843" stroke="#0202A5" stroke-width="2" stroke-miterlimit="10" stroke-linecap="round"/>
<path d="M18.7708 17.2037C21.4807 17.2037 23.6775 15.0069 23.6775 12.297C23.6775 9.58706 21.4807 7.39026 18.7708 7.39026C16.0609 7.39026 13.8641 9.58706 13.8641 12.297C13.8641 15.0069 16.0609 17.2037 18.7708 17.2037Z" fill="white" stroke="#0202A5" stroke-width="2" stroke-miterlimit="10"/>
<path d="M39.4344 12.297H57.5181" stroke="#0202A5" stroke-width="3" stroke-miterlimit="10" stroke-linecap="round"/>
<path d="M71.2134 12.297H100.919" stroke="#0202A5" stroke-width="3" stroke-miterlimit="10" stroke-linecap="round"/>
<path d="M39.4345 60.4718C46.2125 60.4718 51.7072 54.9771 51.7072 48.199C51.7072 41.421 46.2125 35.9263 39.4345 35.9263C32.6564 35.9263 27.1617 41.421 27.1617 48.199C27.1617 54.9771 32.6564 60.4718 39.4345 60.4718Z" fill="#0202A5"/>
<path d="M61.605 95.735C61.8943 94.2762 62.0511 92.7572 62.0511 91.2141C62.0511 78.7363 51.9242 68.6095 39.4465 68.6095C26.9688 68.6095 16.8419 78.7363 16.8419 91.2141C16.8419 92.7572 16.9986 94.2762 17.288 95.735" fill="#0202A5"/>
<path d="M89.0921 60.6165C92.2508 58.7599 99.0382 55.3361 108.273 55.0588C118.87 54.7453 126.658 58.7478 129.817 60.6165C130.636 63.7028 132.167 71.1773 129.141 79.6284C124.247 93.3479 111.444 98.3993 109.454 99.1467C107.525 98.4957 95.8916 94.3847 90.4424 81.9793C86.1144 72.1418 88.3567 63.1723 89.0921 60.6044V60.6165Z" fill="#0202A5" stroke="#0202A5" stroke-width="2" stroke-linecap="round" stroke-linejoin="round"/>
<path d="M98.2425 70.8639C101.522 74.0827 104.789 77.3016 108.068 80.5205C113.493 75.0954 118.918 69.6703 124.343 64.2452" stroke="white" stroke-width="3" stroke-linecap="round" stroke-linejoin="round"/>
</svg>
