<svg width="51" height="70" viewBox="0 0 51 70" fill="none" xmlns="http://www.w3.org/2000/svg">
<path d="M4.77273 0C2.13682 0 0 2.13682 0 4.77273V65.2273C0 67.8632 2.13682 70 4.77273 70H46.1364C48.7723 70 50.9091 67.8632 50.9091 65.2273V19.0909L31.8182 0H4.77273Z" fill="#D2DDEC"/>
<path d="M39.667 31.9999C39.667 31.0794 38.9208 30.3333 38.0003 30.3333H13.3337C12.4132 30.3333 11.667 31.0794 11.667 31.9999V31.9999C11.667 32.9204 12.4132 33.6666 13.3337 33.6666H38.0003C38.9208 33.6666 39.667 32.9204 39.667 31.9999V31.9999Z" fill="white"/>
<path d="M39.667 38.6666C39.667 37.7461 38.9208 36.9999 38.0003 36.9999H13.3337C12.4132 36.9999 11.667 37.7461 11.667 38.6666V38.6666C11.667 39.5871 12.4132 40.3333 13.3337 40.3333H38.0003C38.9208 40.3333 39.667 39.5871 39.667 38.6666V38.6666Z" fill="white"/>
<path d="M11.667 45.3333C11.667 44.4128 12.4132 43.6666 13.3337 43.6666H38.0003C38.9208 43.6666 39.667 44.4128 39.667 45.3333V45.3333C39.667 46.2537 38.9208 46.9999 38.0003 46.9999H13.3337C12.4132 46.9999 11.667 46.2537 11.667 45.3333V45.3333Z" fill="white"/>
<path d="M32.667 51.9999C32.667 51.0794 31.9208 50.3333 31.0003 50.3333H13.3337C12.4132 50.3333 11.667 51.0794 11.667 51.9999V51.9999C11.667 52.9204 12.4132 53.6666 13.3337 53.6666H31.0003C31.9208 53.6666 32.667 52.9204 32.667 51.9999V51.9999Z" fill="white"/>
<path d="M4.77273 69.9996C2.13682 69.9996 0 67.8628 0 65.2269V64.4314C0 67.0673 2.13682 69.2041 4.77273 69.2041H46.1364C48.7723 69.2041 50.9091 67.0673 50.9091 64.4314V65.2269C50.9091 67.8628 48.7723 69.9996 46.1364 69.9996H4.77273Z" fill="#B1C2D9"/>
<path d="M4.77273 0C2.13682 0 0 2.13682 0 4.77273V5.56818C0 2.93228 2.13682 0.795455 4.77273 0.795455H32.6136L31.8182 0H4.77273Z" fill="#D2DDEC"/>
<path d="M50.9088 35.3976V19.0907L48.1247 16.3066H34.6985C33.6355 16.3066 33.1031 17.5919 33.8548 18.3435L50.9088 35.3976Z" fill="#B1C2D9"/>
<path d="M31.8184 0L50.9093 19.0909H36.5911C33.9552 19.0909 31.8184 16.9541 31.8184 14.3182V0Z" fill="white"/>
</svg>
