<svg width="48" height="48" viewBox="0 0 48 48" fill="none" xmlns="http://www.w3.org/2000/svg">
<path d="M0 6C0 2.68629 2.68629 0 6 0H42C45.3137 0 48 2.68629 48 6V42C48 45.3137 45.3137 48 42 48H6C2.68629 48 0 45.3137 0 42V6Z" fill="#FFF5E7"/>
<path d="M9.24749 35.3254C9.52648 35.7454 9.99595 35.9989 10.4999 35.9989H32.9989C33.5989 35.9989 34.1418 35.6419 34.3773 35.0899L38.8771 24.5904C38.9757 24.3623 39.016 24.1133 38.9943 23.8657C38.9726 23.6182 38.8896 23.38 38.7528 23.1725C38.6161 22.9651 38.4298 22.7949 38.2109 22.6774C37.9919 22.5599 37.7472 22.4988 37.4987 22.4995H35.9987V17.9997C35.9987 16.3453 34.6533 14.9999 32.9989 14.9999H23.0168L19.183 12H11.9999C10.3454 12 9 13.3454 9 14.9999V34.499H9.0105C9.00716 34.7917 9.08954 35.079 9.24749 35.3254ZM32.9989 17.9997V22.4995H14.9997C14.3997 22.4995 13.8568 22.8565 13.6213 23.4085L11.9999 27.1928V17.9997H32.9989Z" fill="#FFAE36"/>
</svg>
