<svg width="267" height="80" viewBox="0 0 267 80" fill="none" xmlns="http://www.w3.org/2000/svg">
    <g clip-path="url(#clip0_17_493)">
        <path d="M260.543 1.11111H5.72712C3.32216 1.11111 1.37256 3.10096 1.37256 5.55556V74.4445C1.37256 76.899 3.32216 78.8889 5.72712 78.8889H260.543C262.948 78.8889 264.897 76.899 264.897 74.4445V5.55556C264.897 3.10096 262.948 1.11111 260.543 1.11111Z"
              stroke="#263238" stroke-width="2"/>
        <path d="M63.2125 38.1303C63.1621 31.9779 68.15 28.979 68.3822 28.845C65.555 24.6403 61.1729 24.0632 59.628 24.022C55.9427 23.6305 52.3784 26.2687 50.5004 26.2687C48.592 26.2687 45.7041 24.0632 42.5842 24.1251C38.5756 24.1869 34.8296 26.5572 32.7799 30.226C28.5391 37.7181 31.6996 48.7243 35.7687 54.784C37.7981 57.752 40.171 61.0601 43.2809 60.9467C46.3201 60.823 47.4611 58.968 51.1263 58.968C54.7613 58.968 55.8315 60.9467 59.0021 60.8746C62.2634 60.823 64.3232 57.8962 66.282 54.9077C68.6347 51.5069 69.5737 48.1576 69.6141 47.9927C69.5334 47.9411 63.2731 45.4988 63.2125 38.1303ZM57.225 20.0338C58.8607 17.9418 59.9814 15.1078 59.6684 12.2222C57.3058 12.3252 54.3372 13.8917 52.6408 15.9322C51.1364 17.7357 49.7834 20.683 50.1369 23.4552C52.7822 23.651 55.5185 22.0846 57.225 20.0338Z"
              fill="#263238"/>
        <path d="M107.256 60.5035H103.005L100.673 53.0423H92.5848L90.3634 60.5035H86.2236L94.2407 35.0901H99.1882L107.256 60.5035ZM99.9759 49.9094L97.8655 43.2728C97.6435 42.5925 97.2193 40.9952 96.6135 38.4807H96.5428C96.3005 39.5628 95.8966 41.1601 95.3615 43.2728L93.2916 49.9094H99.9759ZM127.834 51.1152C127.834 54.2275 127.006 56.6905 125.35 58.5043C123.865 60.112 122.018 60.9158 119.816 60.9158C117.433 60.9158 115.727 60.0501 114.688 58.3188V67.9339H110.699V48.1988C110.699 46.2408 110.649 44.2311 110.548 42.1803H114.061L114.284 45.0865H114.354C115.687 42.9018 117.707 41.799 120.412 41.799C122.533 41.799 124.299 42.6544 125.714 44.3651C127.127 46.0759 127.834 48.3328 127.834 51.1152ZM123.775 51.2698C123.775 49.487 123.381 48.0133 122.594 46.8591C121.735 45.6533 120.574 45.0555 119.12 45.0555C118.141 45.0555 117.242 45.3957 116.444 46.0552C115.647 46.7251 115.121 47.6011 114.879 48.6728C114.768 49.0748 114.707 49.4972 114.698 49.9094V52.9702C114.698 54.2997 115.102 55.4229 115.9 56.3504C116.696 57.2677 117.737 57.7313 119.018 57.7313C120.523 57.7313 121.694 57.1336 122.533 55.9589C123.35 54.7634 123.775 53.2072 123.775 51.2698ZM148.492 51.1152C148.492 54.2275 147.665 56.6905 146.008 58.5043C144.524 60.112 142.677 60.9158 140.476 60.9158C138.092 60.9158 136.386 60.0501 135.346 58.3188V67.9339H131.357V48.1988C131.357 46.2408 131.307 44.2311 131.206 42.1803H134.72L134.942 45.0865H135.013C136.345 42.9018 138.365 41.799 141.071 41.799C143.192 41.799 144.959 42.6544 146.372 44.3651C147.776 46.0759 148.492 48.3328 148.492 51.1152ZM144.423 51.2698C144.423 49.487 144.03 48.0133 143.242 46.8591C142.384 45.6533 141.222 45.0555 139.769 45.0555C138.789 45.0555 137.89 45.3957 137.082 46.0552C136.285 46.7251 135.76 47.6011 135.518 48.6728C135.396 49.1778 135.326 49.59 135.326 49.9094V52.9702C135.326 54.2997 135.73 55.4229 136.527 56.3504C137.325 57.2677 138.365 57.7313 139.658 57.7313C141.161 57.7313 142.333 57.1336 143.171 55.9589C144.009 54.7634 144.423 53.2072 144.423 51.2698ZM171.584 53.3824C171.584 55.5467 170.847 57.3089 169.373 58.6589C167.758 60.1429 165.486 60.8849 162.588 60.8849C159.912 60.8849 157.762 60.3593 156.136 59.2978L157.054 55.9073C158.802 56.9688 160.73 57.4943 162.82 57.4943C164.324 57.4943 165.496 57.144 166.334 56.4534C167.172 55.763 167.596 54.8355 167.596 53.6813C167.596 52.6508 167.243 51.7851 166.556 51.074C165.869 50.3732 164.728 49.7137 163.124 49.116C158.761 47.4568 156.58 45.0247 156.58 41.8403C156.58 39.7585 157.347 38.0479 158.892 36.7184C160.427 35.389 162.467 34.7192 165.011 34.7192C167.273 34.7192 169.161 35.1211 170.666 35.9249L169.666 39.2433C168.252 38.4601 166.667 38.0788 164.88 38.0788C163.476 38.0788 162.366 38.4291 161.578 39.1299C160.911 39.7585 160.578 40.5212 160.578 41.4281C160.578 42.4277 160.963 43.2624 161.73 43.9117C162.396 44.5094 163.597 45.169 165.344 45.8698C167.485 46.756 169.06 47.7762 170.07 48.9614C171.079 50.1465 171.584 51.6202 171.584 53.3824ZM184.811 45.2411H180.409V54.1348C180.409 56.402 181.186 57.5252 182.742 57.5252C183.458 57.5252 184.044 57.4634 184.519 57.3398L184.63 60.4314C183.843 60.7303 182.813 60.8849 181.53 60.8849C179.955 60.8849 178.723 60.3902 177.834 59.4112C176.946 58.4321 176.502 56.7832 176.502 54.4749V45.2411H173.887V42.1907H176.502V38.8311L180.42 37.6253V42.1907H184.821L184.811 45.2411ZM204.612 51.1977C204.612 54.0111 203.825 56.3299 202.249 58.1333C200.603 59.9985 198.413 60.9261 195.676 60.9261C193.04 60.9261 190.94 60.0295 189.375 58.257C187.811 56.4741 187.033 54.2172 187.033 51.5069C187.033 48.6625 187.841 46.3438 189.457 44.53C191.072 42.7162 193.243 41.8197 195.979 41.8197C198.614 41.8197 200.735 42.7162 202.33 44.4991C203.844 46.2201 204.612 48.4564 204.612 51.1977ZM200.473 51.2904C200.473 49.6107 200.119 48.1679 199.401 46.9724C198.564 45.5193 197.372 44.7877 195.818 44.7877C194.222 44.7877 192.99 45.5193 192.162 46.9724C191.446 48.1781 191.092 49.6415 191.092 51.3729C191.092 53.0527 191.446 54.4954 192.162 55.7012C193.021 57.1542 194.233 57.886 195.787 57.886C197.312 57.886 198.503 57.144 199.372 55.6703C200.109 54.4233 200.473 52.9702 200.473 51.2904ZM217.587 45.7667C217.172 45.6945 216.749 45.6533 216.324 45.6533C214.921 45.6533 213.841 46.1892 213.074 47.2713C212.407 48.2297 212.074 49.4354 212.074 50.8885V60.5035H208.085V47.9514C208.085 46.0243 208.055 44.1074 207.974 42.1803H211.448L211.589 45.6842H211.7C212.124 44.4784 212.781 43.5098 213.7 42.7781C214.527 42.1391 215.547 41.799 216.587 41.799C216.961 41.799 217.283 41.83 217.587 41.8712V45.7667ZM235.429 50.4763C235.439 51.0947 235.387 51.713 235.287 52.321H223.312C223.353 54.1348 223.938 55.5156 225.049 56.4741C226.058 57.3294 227.361 57.752 228.967 57.752C230.743 57.752 232.359 57.4634 233.813 56.8863L234.439 59.71C232.742 60.4623 230.733 60.8437 228.421 60.8437C225.634 60.8437 223.453 60.0089 221.858 58.3394C220.273 56.6699 219.475 54.4233 219.475 51.6099C219.475 48.848 220.212 46.5499 221.697 44.7155C223.241 42.7574 225.341 41.7784 227.977 41.7784C230.561 41.7784 232.52 42.7574 233.854 44.7155C234.893 46.2717 235.429 48.1884 235.429 50.4763ZM231.622 49.4251C231.652 48.2194 231.39 47.1785 230.845 46.2922C230.158 45.1587 229.087 44.5919 227.664 44.5919C226.362 44.5919 225.301 45.1483 224.483 46.251C223.816 47.127 223.423 48.1884 223.301 49.4149L231.622 49.4251Z"
              fill="#263238"/>
        <path d="M91.4335 26.1141C90.3229 26.1141 89.3637 26.0626 88.5659 25.9698V13.6753C89.6868 13.5001 90.8177 13.4073 91.9485 13.4177C96.5225 13.4177 98.6328 15.7158 98.6328 19.4567C98.6227 23.7747 96.1388 26.1141 91.4335 26.1141ZM92.11 14.9944C91.4941 14.9944 90.9691 15.0357 90.5349 15.1283V24.4652C90.7671 24.5064 91.2215 24.5167 91.8576 24.5167C94.8564 24.5167 96.5628 22.7751 96.5628 19.5186C96.5527 16.6021 95.0079 14.9944 92.11 14.9944ZM105.196 26.2068C102.621 26.2068 100.945 24.2384 100.945 21.5693C100.945 18.7868 102.651 16.8082 105.337 16.8082C107.882 16.8082 109.588 18.6838 109.588 21.425C109.588 24.2384 107.831 26.2068 105.196 26.2068ZM105.267 18.2716C103.853 18.2716 102.944 19.6216 102.944 21.5178C102.944 23.3728 103.873 24.7228 105.246 24.7228C106.63 24.7228 107.549 23.28 107.549 21.4766C107.559 19.6422 106.65 18.2716 105.267 18.2716ZM124.289 16.9937L121.533 26.0007H119.736L118.595 22.0949C118.312 21.1364 118.07 20.1678 117.888 19.1888H117.848C117.706 20.1678 117.433 21.1571 117.14 22.0949L115.929 26.0007H114.112L111.516 16.9937H113.536L114.535 21.2704C114.768 22.2907 114.97 23.2491 115.132 24.1663H115.172C115.314 23.4037 115.555 22.4659 115.899 21.2911L117.151 16.9937H118.746L119.948 21.1983C120.241 22.2186 120.473 23.2182 120.654 24.1663H120.705C120.836 23.2388 121.028 22.2598 121.301 21.1983L122.371 16.9937H124.289ZM134.457 26.0007H132.499V20.8273C132.499 19.23 131.902 18.4364 130.721 18.4364C129.561 18.4364 128.763 19.4567 128.763 20.6418V26.0007H126.804V19.57C126.804 18.7766 126.783 17.9212 126.733 16.9937H128.46L128.55 18.3849H128.6C129.126 17.4266 130.196 16.8082 131.398 16.8082C133.246 16.8082 134.467 18.251 134.467 20.6109L134.457 26.0007ZM139.859 26.0007H137.901V12.8611H139.859V26.0007ZM147.018 26.2068C144.443 26.2068 142.767 24.2384 142.767 21.5693C142.767 18.7868 144.474 16.8082 147.16 16.8082C149.704 16.8082 151.411 18.6838 151.411 21.425C151.411 24.2384 149.644 26.2068 147.018 26.2068ZM147.089 18.2716C145.675 18.2716 144.767 19.6216 144.767 21.5178C144.767 23.3728 145.695 24.7228 147.068 24.7228C148.452 24.7228 149.371 23.28 149.371 21.4766C149.371 19.6422 148.472 18.2716 147.089 18.2716ZM159.144 26.0007L159.003 24.9598H158.953C158.357 25.7946 157.479 26.1964 156.368 26.1964C154.782 26.1964 153.662 25.0629 153.662 23.548C153.662 21.322 155.55 20.1781 158.821 20.1781V20.0132C158.821 18.828 158.206 18.2303 156.994 18.2303C156.126 18.2303 155.358 18.4571 154.692 18.9002L154.298 17.5811C155.116 17.0658 156.135 16.7979 157.327 16.7979C159.629 16.7979 160.8 18.0346 160.8 20.5181V23.8366C160.8 24.7434 160.84 25.4544 160.932 25.9903L159.144 26.0007ZM158.872 21.5178C156.691 21.5178 155.601 22.0537 155.601 23.3316C155.601 24.2797 156.166 24.7434 156.943 24.7434C157.944 24.7434 158.872 23.9704 158.872 22.909V21.5178ZM170.302 26.0007L170.211 24.5579H170.16C169.595 25.6503 168.646 26.2068 167.323 26.2068C165.193 26.2068 163.618 24.3003 163.618 21.6106C163.618 18.7971 165.254 16.8082 167.484 16.8082C168.667 16.8082 169.504 17.2101 169.969 18.0346H170.009V12.8611H171.967V23.5686C171.967 24.4342 171.988 25.2587 172.038 25.9903H170.302V26.0007ZM170.019 20.7037C170.019 19.4463 169.201 18.3643 167.949 18.3643C166.495 18.3643 165.607 19.6834 165.607 21.5281C165.607 23.3419 166.525 24.5889 167.909 24.5889C169.14 24.5889 170.019 23.4964 170.019 22.198V20.7037ZM184.428 26.2068C181.853 26.2068 180.177 24.2384 180.177 21.5693C180.177 18.7868 181.883 16.8082 184.57 16.8082C187.114 16.8082 188.82 18.6838 188.82 21.425C188.82 24.2384 187.064 26.2068 184.428 26.2068ZM184.499 18.2716C183.085 18.2716 182.176 19.6216 182.176 21.5178C182.176 23.3728 183.105 24.7228 184.478 24.7228C185.862 24.7228 186.781 23.28 186.781 21.4766C186.79 19.6422 185.881 18.2716 184.499 18.2716ZM199.372 26.0007H197.412V20.8273C197.412 19.23 196.817 18.4364 195.636 18.4364C194.474 18.4364 193.677 19.4567 193.677 20.6418V26.0007H191.718V19.57C191.718 18.7766 191.698 17.9212 191.647 16.9937H193.373L193.465 18.3849H193.515C194.041 17.4266 195.111 16.8082 196.312 16.8082C198.16 16.8082 199.382 18.251 199.382 20.6109V26.0007H199.372ZM212.558 18.4982H210.397V22.8678C210.397 23.9808 210.771 24.5373 211.538 24.5373C211.881 24.5373 212.174 24.4961 212.407 24.4446L212.457 25.9594C212.074 26.1038 211.569 26.1862 210.933 26.1862C209.387 26.1862 208.459 25.3206 208.459 23.0327V18.488H207.166V16.9833H208.459V15.3344L210.388 14.7368V16.9833H212.549L212.558 18.4982ZM222.948 26.0007H220.989V20.8686C220.989 19.2609 220.393 18.4468 219.212 18.4468C218.192 18.4468 217.254 19.1476 217.254 20.58V26.011H215.294V12.8611H217.254V18.2716H217.294C217.91 17.2926 218.808 16.8082 219.949 16.8082C221.817 16.8082 222.958 18.2921 222.958 20.6418L222.948 26.0007ZM233.58 21.9816H227.694C227.734 23.682 228.835 24.6507 230.471 24.6507C231.339 24.6507 232.146 24.5064 232.853 24.2281L233.157 25.6193C232.318 25.9903 231.339 26.1759 230.198 26.1759C227.441 26.1759 225.806 24.393 225.806 21.6414C225.806 18.8796 227.482 16.8082 229.976 16.8082C232.227 16.8082 233.641 18.5086 233.641 21.085C233.661 21.3736 233.641 21.6827 233.58 21.9816ZM231.783 20.5491C231.783 19.1578 231.097 18.1788 229.845 18.1788C228.714 18.1788 227.826 19.1784 227.704 20.5491H231.783Z"
              fill="#263238"/>
    </g>
    <defs>
        <clipPath id="clip0_17_493">
            <rect x="0.283691" width="266.717" height="80" rx="7.5" fill="white"/>
        </clipPath>
    </defs>
</svg>
