<svg width="60" height="60" viewBox="0 0 60 60" fill="none" xmlns="http://www.w3.org/2000/svg">
    <g clip-path="url(#clip0_43_2375)">
        <path opacity="0.3"
              d="M48.025 30.1L44.2 29.825L43.45 26.075C42.2 19.65 36.55 15 30 15C24.85 15 20.2 17.85 17.8 22.4L16.55 24.775L13.875 25.05C8.825 25.6 5 29.875 5 35C5 40.525 9.475 45 15 45H47.5C51.625 45 55 41.625 55 37.5C55 33.625 51.95 30.35 48.025 30.1Z"
              fill="#0202A5"/>
        <path d="M48.375 25.1C46.675 16.475 39.1 10 30 10C22.775 10 16.5 14.1 13.375 20.1C5.85 20.9 0 27.275 0 35C0 43.275 6.725 50 15 50H47.5C54.4 50 60 44.4 60 37.5C60 30.9 54.875 25.55 48.375 25.1ZM47.5 45H15C9.475 45 5 40.525 5 35C5 29.875 8.825 25.6 13.9 25.075L16.575 24.8L17.825 22.425C20.2 17.85 24.85 15 30 15C36.55 15 42.2 19.65 43.475 26.075L44.225 29.825L48.05 30.1C51.95 30.35 55 33.625 55 37.5C55 41.625 51.625 45 47.5 45Z"
              fill="#0202A5"/>
    </g>
    <defs>
        <clipPath id="clip0_43_2375">
            <rect width="60" height="60" fill="white"/>
        </clipPath>
    </defs>
</svg>
