<svg width="267" height="80" viewBox="0 0 267 80" fill="none" xmlns="http://www.w3.org/2000/svg">
    <path d="M260.259 1.11111H5.44342C3.03847 1.11111 1.08887 3.10096 1.08887 5.55556V74.4445C1.08887 76.899 3.03847 78.8889 5.44342 78.8889H260.259C262.664 78.8889 264.614 76.899 264.614 74.4445V5.55556C264.614 3.10096 262.664 1.11111 260.259 1.11111Z"
          stroke="#263238" stroke-width="2"/>
    <path d="M95.3825 20.9505C95.3825 22.4814 95.0076 23.821 94.0702 24.7778C92.9452 25.9259 91.6328 26.5 89.9454 26.5C88.258 26.5 86.9456 25.9259 85.8207 24.7778C84.6958 23.6295 84.1333 22.2901 84.1333 20.5679C84.1333 18.8457 84.6958 17.5062 85.8207 16.358C86.9456 15.2099 88.258 14.6358 89.9454 14.6358C90.6954 14.6358 91.4454 14.8271 92.1952 15.2099C92.9452 15.5926 93.5077 15.9753 93.8826 16.5493L92.9452 17.5061C92.1952 16.5493 91.2578 16.1667 89.9454 16.1667C88.8204 16.1667 87.6955 16.5493 86.9456 17.5061C86.0082 18.2716 85.6332 19.4198 85.6332 20.7592C85.6332 22.0988 86.0082 23.2469 86.9456 24.0123C87.883 24.7778 88.8204 25.3518 89.9454 25.3518C91.2578 25.3518 92.1952 24.9691 93.1327 24.0123C93.6951 23.4382 94.0702 22.6728 94.0702 21.716H89.9454V20.3766H95.3825C95.3825 20.3766 95.3825 20.5679 95.3825 20.9505Z"
          fill="#263238" stroke="#263238" stroke-width="0.2" stroke-miterlimit="10"/>
    <path d="M104.008 16.1667H98.9457V19.8024H103.633V21.142H98.9457V24.7778H104.008V26.1172H97.4458V14.6358H104.008V16.1667Z"
          fill="#263238" stroke="#263238" stroke-width="0.2" stroke-miterlimit="10"/>
    <path d="M110.195 26.1172H108.695V15.9753H105.508V14.6358H113.382V15.9753H110.195V26.1172Z" fill="#263238"
          stroke="#263238" stroke-width="0.2" stroke-miterlimit="10"/>
    <path d="M118.819 26.1172V14.6358H120.318V26.1172H118.819Z" fill="#263238" stroke="#263238" stroke-width="0.2"
          stroke-miterlimit="10"/>
    <path d="M126.693 26.1172H125.194V15.9753H122.007V14.6358H129.694V15.9753H126.506V26.1172H126.693Z" fill="#263238"
          stroke="#263238" stroke-width="0.2" stroke-miterlimit="10"/>
    <path d="M144.505 24.7778C143.38 25.9259 142.068 26.5 140.38 26.5C138.693 26.5 137.381 25.9259 136.255 24.7778C135.131 23.6295 134.568 22.2901 134.568 20.5679C134.568 18.8457 135.131 17.5062 136.255 16.358C137.381 15.2099 138.693 14.6358 140.38 14.6358C142.068 14.6358 143.38 15.2099 144.505 16.358C145.63 17.5062 146.192 18.8457 146.192 20.5679C146.192 22.0988 145.63 23.6295 144.505 24.7778ZM137.381 23.821C138.131 24.5864 139.256 25.1604 140.38 25.1604C141.506 25.1604 142.63 24.7778 143.38 23.821C144.13 23.0556 144.692 21.9074 144.692 20.5679C144.692 19.2283 144.318 18.0802 143.38 17.3148C142.63 16.5493 141.506 15.9753 140.38 15.9753C139.256 15.9753 138.131 16.358 137.381 17.3148C136.631 18.0802 136.068 19.2283 136.068 20.5679C136.068 21.716 136.444 22.8642 137.381 23.821Z"
          fill="#263238" stroke="#263238" stroke-width="0.2" stroke-miterlimit="10"/>
    <path d="M148.255 26.1172V14.6358H149.943L155.379 23.6295V21.3333V14.6358H156.88V26.1172H155.379L149.567 16.7408V19.037V26.1172H148.255Z"
          fill="#263238" stroke="#263238" stroke-width="0.2" stroke-miterlimit="10"/>
    <path d="M134.192 42.9567C129.693 42.9567 126.131 46.4011 126.131 51.1851C126.131 55.7777 129.693 59.4134 134.192 59.4134C138.692 59.4134 142.255 55.969 142.255 51.1851C142.255 46.4011 138.692 42.9567 134.192 42.9567ZM134.192 55.969C131.755 55.969 129.693 53.8641 129.693 50.9938C129.693 48.1233 131.755 46.0184 134.192 46.0184C136.63 46.0184 138.692 47.932 138.692 50.9938C138.692 54.0554 136.63 55.969 134.192 55.969ZM116.756 42.9567C112.256 42.9567 108.694 46.4011 108.694 51.1851C108.694 55.7777 112.256 59.4134 116.756 59.4134C121.256 59.4134 124.818 55.969 124.818 51.1851C124.818 46.4011 121.256 42.9567 116.756 42.9567ZM116.756 55.969C114.319 55.969 112.256 53.8641 112.256 50.9938C112.256 48.1233 114.319 46.0184 116.756 46.0184C119.193 46.0184 121.256 47.932 121.256 50.9938C121.256 54.0554 119.193 55.969 116.756 55.969ZM95.945 45.4443V48.8888H104.007C103.819 50.8024 103.07 52.3332 102.132 53.29C101.007 54.4381 99.1322 55.7777 95.945 55.7777C90.8829 55.7777 87.133 51.7591 87.133 46.5926C87.133 41.4259 91.0703 37.4073 95.945 37.4073C98.5699 37.4073 100.632 38.5554 102.132 39.895L104.569 37.4073C102.507 35.4938 99.8822 33.9629 96.1325 33.9629C89.3829 33.9629 83.5708 39.7037 83.5708 46.5926C83.5708 53.4813 89.3829 59.2221 96.1325 59.2221C99.8822 59.2221 102.507 58.074 104.757 55.5863C107.007 53.29 107.757 50.0369 107.757 47.5493C107.757 46.7839 107.757 46.0184 107.569 45.4443H95.945ZM181.065 48.1233C180.315 46.2098 178.439 42.9567 174.315 42.9567C170.19 42.9567 166.816 46.2098 166.816 51.1851C166.816 55.7777 170.19 59.4134 174.69 59.4134C178.252 59.4134 180.502 57.1172 181.252 55.7777L178.627 53.8641C177.69 55.2036 176.564 56.1603 174.69 56.1603C172.815 56.1603 171.689 55.395 170.752 53.6728L181.439 49.0801L181.065 48.1233ZM170.19 50.8024C170.19 47.7407 172.628 46.0184 174.315 46.0184C175.627 46.0184 176.94 46.7839 177.314 47.7407L170.19 50.8024ZM161.378 58.648H164.94V34.7283H161.378V58.648ZM155.754 44.6789C154.816 43.7221 153.317 42.7653 151.441 42.7653C147.504 42.7653 143.754 46.4011 143.754 50.9938C143.754 55.5863 147.317 59.0308 151.441 59.0308C153.317 59.0308 154.816 58.074 155.566 57.1172H155.754V58.2653C155.754 61.327 154.067 63.0492 151.441 63.0492C149.379 63.0492 147.879 61.5184 147.504 60.1789L144.504 61.5184C145.441 63.6233 147.692 66.3023 151.629 66.3023C155.754 66.3023 159.129 63.8147 159.129 57.8827V43.3394H155.754V44.6789ZM151.629 55.969C149.192 55.969 147.129 53.8641 147.129 50.9938C147.129 48.1233 149.192 46.0184 151.629 46.0184C154.067 46.0184 155.941 48.1233 155.941 50.9938C155.941 53.8641 154.067 55.969 151.629 55.969ZM197.376 34.7283H188.939V58.648H192.501V49.6542H197.376C201.312 49.6542 205.063 46.7839 205.063 42.1913C205.063 37.5987 201.312 34.7283 197.376 34.7283ZM197.563 46.4011H192.501V38.1728H197.563C200.188 38.1728 201.688 40.4691 201.688 42.1913C201.501 44.1049 200.001 46.4011 197.563 46.4011ZM219.125 42.9567C216.499 42.9567 213.874 44.1049 212.937 46.5926L216.124 47.932C216.875 46.5926 217.999 46.2098 219.312 46.2098C221.187 46.2098 222.874 47.358 223.061 49.2716V49.4629C222.5 49.0801 220.999 48.5061 219.499 48.5061C216.124 48.5061 212.75 50.4197 212.75 53.8641C212.75 57.1172 215.562 59.2221 218.562 59.2221C220.999 59.2221 222.124 58.074 223.061 56.9259H223.249V58.8394H226.623V49.6542C226.249 45.253 223.061 42.9567 219.125 42.9567ZM218.749 55.969C217.625 55.969 215.937 55.395 215.937 53.8641C215.937 51.9506 217.999 51.3764 219.687 51.3764C221.187 51.3764 221.937 51.7592 222.874 52.1419C222.5 54.4382 220.624 55.969 218.749 55.969ZM238.435 43.3394L234.499 53.6728H234.311L230.186 43.3394H226.436L232.624 57.8827L229.061 65.9197H232.624L242.185 43.3394H238.435ZM206.937 58.648H210.499V34.7283H206.937V58.648Z"
          fill="#263238"/>
    <path d="M25.0751 63.432C24.3251 63.0493 23.9502 62.0925 23.9502 61.1358C23.9502 60.9443 23.9502 60.5617 23.9502 60.3703C23.9502 46.2099 23.9502 32.0493 23.9502 18.0802C23.9502 17.3148 24.1377 16.7408 24.3251 15.9753C24.5127 15.5925 24.8876 15.2099 25.2627 14.8272C33.3246 23.0555 41.199 31.2839 49.0735 39.5123C41.0116 47.1665 33.1371 55.2037 25.0751 63.432Z"
          fill="#263238"/>
    <path d="M56.9473 31.0926C54.6974 33.3889 52.26 35.6851 50.0103 38.1728C42.5107 30.3271 34.8237 22.4815 27.3242 14.6358C27.3242 14.6358 27.3242 14.4445 27.5117 14.4445C37.2611 19.9938 47.0104 25.5432 56.9473 31.0926Z"
          fill="#263238"/>
    <path d="M27.3242 63.432C34.8237 55.7777 42.5107 48.1234 50.0103 40.4691C52.0726 42.574 54.3225 44.679 56.7598 46.9752C47.0104 52.5247 37.2611 58.074 27.5117 63.432H27.3242Z"
          fill="#263238"/>
    <path d="M58.0732 46.2098C55.6359 43.9136 53.3861 41.6172 50.9487 39.321C53.3861 36.8333 55.8234 34.3457 58.2607 31.858C59.0106 32.2407 59.7606 32.6234 60.5106 33.1974C62.3854 34.3457 64.4479 35.3024 66.3227 36.4506C66.8852 36.6419 67.2601 37.0247 67.6351 37.5987C68.385 38.5554 68.385 39.5123 67.6351 40.4691C67.2601 40.8518 66.8852 41.2346 66.3227 41.4259C63.6979 43.1481 60.8856 44.679 58.0732 46.2098Z"
          fill="#263238"/>
</svg>
