<svg width="35" height="35" viewBox="0 0 35 35" fill="none" xmlns="http://www.w3.org/2000/svg">
    <circle cx="17.5" cy="17.5" r="17" stroke="white"/>
    <path d="M11.608 24.054C10.936 24.054 10.348 23.94 9.844 23.712C9.34 23.472 8.95 23.112 8.674 22.632C8.398 22.152 8.26 21.546 8.26 20.814V13.956C8.26 13.224 8.398 12.612 8.674 12.12C8.95 11.628 9.34 11.256 9.844 11.004C10.36 10.752 10.948 10.626 11.608 10.626H14.254C14.998 10.626 15.604 10.764 16.072 11.04C16.552 11.316 16.906 11.7 17.134 12.192C17.374 12.684 17.494 13.272 17.494 13.956V20.814C17.494 21.906 17.2 22.722 16.612 23.262C16.036 23.79 15.244 24.054 14.236 24.054H11.608ZM11.986 22.416H13.804C14.464 22.416 14.938 22.254 15.226 21.93C15.526 21.606 15.676 21.15 15.676 20.562V14.118C15.676 13.47 15.52 12.996 15.208 12.696C14.896 12.396 14.452 12.246 13.876 12.246H11.932C11.356 12.246 10.9 12.408 10.564 12.732C10.228 13.056 10.06 13.518 10.06 14.118V20.562C10.06 21.186 10.228 21.654 10.564 21.966C10.912 22.266 11.386 22.416 11.986 22.416ZM24.4118 24.108C23.4518 24.108 22.5518 24.084 21.7118 24.036C20.8838 23.988 20.1518 23.922 19.5158 23.838V22.416H23.7638C24.2798 22.416 24.7238 22.368 25.0958 22.272C25.4678 22.164 25.7558 21.984 25.9598 21.732C26.1758 21.48 26.2838 21.114 26.2838 20.634V19.86C26.2838 19.428 26.1818 19.092 25.9778 18.852C25.7738 18.6 25.5098 18.42 25.1858 18.312C24.8618 18.204 24.5198 18.144 24.1598 18.132L20.7938 17.988V16.638L24.0878 16.494C24.6998 16.458 25.1918 16.326 25.5638 16.098C25.9358 15.87 26.1218 15.48 26.1218 14.928V14.172C26.1218 13.584 25.9178 13.134 25.5098 12.822C25.1138 12.498 24.4958 12.336 23.6558 12.336H19.9118V10.914C20.4998 10.83 21.1658 10.758 21.9098 10.698C22.6538 10.638 23.4698 10.614 24.3578 10.626C25.1498 10.626 25.8038 10.758 26.3198 11.022C26.8478 11.274 27.2438 11.64 27.5078 12.12C27.7718 12.588 27.9038 13.146 27.9038 13.794V14.874C27.9038 15.27 27.8438 15.612 27.7238 15.9C27.6158 16.176 27.4658 16.416 27.2738 16.62C27.0938 16.812 26.8958 16.962 26.6798 17.07C26.4638 17.178 26.2598 17.262 26.0678 17.322C26.2838 17.37 26.5058 17.466 26.7338 17.61C26.9738 17.742 27.1958 17.922 27.3998 18.15C27.6158 18.366 27.7898 18.636 27.9218 18.96C28.0538 19.284 28.1198 19.656 28.1198 20.076V20.94C28.1198 21.972 27.7898 22.758 27.1298 23.298C26.4818 23.838 25.5758 24.108 24.4118 24.108Z"
          fill="white"/>
</svg>
