<svg width="35" height="35" viewBox="0 0 35 35" fill="none" xmlns="http://www.w3.org/2000/svg">
    <circle cx="17.5" cy="17.5" r="17" stroke="white"/>
    <path d="M11.608 24.054C10.936 24.054 10.348 23.94 9.844 23.712C9.34 23.472 8.95 23.112 8.674 22.632C8.398 22.152 8.26 21.546 8.26 20.814V13.956C8.26 13.224 8.398 12.612 8.674 12.12C8.95 11.628 9.34 11.256 9.844 11.004C10.36 10.752 10.948 10.626 11.608 10.626H14.254C14.998 10.626 15.604 10.764 16.072 11.04C16.552 11.316 16.906 11.7 17.134 12.192C17.374 12.684 17.494 13.272 17.494 13.956V20.814C17.494 21.906 17.2 22.722 16.612 23.262C16.036 23.79 15.244 24.054 14.236 24.054H11.608ZM11.986 22.416H13.804C14.464 22.416 14.938 22.254 15.226 21.93C15.526 21.606 15.676 21.15 15.676 20.562V14.118C15.676 13.47 15.52 12.996 15.208 12.696C14.896 12.396 14.452 12.246 13.876 12.246H11.932C11.356 12.246 10.9 12.408 10.564 12.732C10.228 13.056 10.06 13.518 10.06 14.118V20.562C10.06 21.186 10.228 21.654 10.564 21.966C10.912 22.266 11.386 22.416 11.986 22.416ZM19.6958 24V22.542L24.4478 17.916C24.9038 17.484 25.2698 17.082 25.5458 16.71C25.8218 16.338 26.0198 15.966 26.1398 15.594C26.2718 15.21 26.3378 14.796 26.3378 14.352C26.3378 13.956 26.2598 13.608 26.1038 13.308C25.9598 12.996 25.7018 12.756 25.3298 12.588C24.9578 12.42 24.4298 12.336 23.7458 12.336H20.1098V10.932C20.6618 10.86 21.2738 10.794 21.9458 10.734C22.6298 10.662 23.3558 10.626 24.1238 10.626C25.1438 10.626 25.9418 10.77 26.5178 11.058C27.1058 11.334 27.5198 11.736 27.7598 12.264C28.0118 12.78 28.1378 13.392 28.1378 14.1C28.1378 14.712 28.0538 15.276 27.8858 15.792C27.7298 16.296 27.4838 16.788 27.1478 17.268C26.8118 17.736 26.3798 18.228 25.8518 18.744L22.1258 22.344H28.6058V24H19.6958Z"
          fill="white"/>
</svg>
