<svg width="35" height="35" viewBox="0 0 35 35" fill="none" xmlns="http://www.w3.org/2000/svg">
    <circle cx="17.5" cy="17.5" r="17" stroke="white"/>
    <path d="M12.608 24.054C11.936 24.054 11.348 23.94 10.844 23.712C10.34 23.472 9.95 23.112 9.674 22.632C9.398 22.152 9.26 21.546 9.26 20.814V13.956C9.26 13.224 9.398 12.612 9.674 12.12C9.95 11.628 10.34 11.256 10.844 11.004C11.36 10.752 11.948 10.626 12.608 10.626H15.254C15.998 10.626 16.604 10.764 17.072 11.04C17.552 11.316 17.906 11.7 18.134 12.192C18.374 12.684 18.494 13.272 18.494 13.956V20.814C18.494 21.906 18.2 22.722 17.612 23.262C17.036 23.79 16.244 24.054 15.236 24.054H12.608ZM12.986 22.416H14.804C15.464 22.416 15.938 22.254 16.226 21.93C16.526 21.606 16.676 21.15 16.676 20.562V14.118C16.676 13.47 16.52 12.996 16.208 12.696C15.896 12.396 15.452 12.246 14.876 12.246H12.932C12.356 12.246 11.9 12.408 11.564 12.732C11.228 13.056 11.06 13.518 11.06 14.118V20.562C11.06 21.186 11.228 21.654 11.564 21.966C11.912 22.266 12.386 22.416 12.986 22.416ZM23.0898 24V12.372L20.4798 12.966V11.814L23.2698 10.608H24.9078V24H23.0898Z"
          fill="white"/>
</svg>
